<svg width="40" height="40" viewBox="0 0 40 40" fill="none" xmlns="http://www.w3.org/2000/svg">
<path d="M40 20C40 23.9556 38.827 27.8224 36.6294 31.1114C34.4318 34.4004 31.3082 36.9638 27.6537 38.4776C23.9992 39.9913 19.9778 40.3874 16.0982 39.6157C12.2186 38.844 8.65492 36.9392 5.85787 34.1421C3.06082 31.3451 1.15601 27.7814 0.384304 23.9018C-0.3874 20.0222 0.00866381 16.0009 1.52242 12.3463C3.03617 8.69183 5.59962 5.56823 8.8886 3.3706C12.1776 1.17298 16.0444 0 20 0C25.3023 0.00670348 30.3855 2.116 34.1347 5.86527C37.884 9.61454 39.9933 14.6977 40 20Z" fill="#E60000"/>
<path d="M20.3082 31.18C14.8722 31.18 9.12817 26.564 9.12817 18.9747C9.20268 16.5666 9.77937 14.2006 10.8213 12.0283C11.8632 9.85606 13.3475 7.92539 15.1788 6.36C18.5966 3.54758 22.8568 1.95892 27.2815 1.8467C27.7697 1.79827 28.2624 1.8687 28.7175 2.05202C26.8853 2.44018 25.2427 3.44746 24.066 4.90444C22.8892 6.36141 22.2501 8.17919 22.2562 10.052V10.36C28.3068 11.796 31.0762 15.488 31.0762 20.616C31.0039 23.4305 29.8397 26.1064 27.8299 28.0779C25.82 30.0494 23.1221 31.1619 20.3068 31.18" fill="white"/>
</svg>
